<?xml version="1.0" encoding="UTF-8"?>
<svg width="63px" height="60px" viewBox="0 0 63 60" version="1.1" xmlns="http://www.w3.org/2000/svg" xmlns:xlink="http://www.w3.org/1999/xlink">
    <!-- Generator: Sketch 53.2 (72643) - https://sketchapp.com -->
    <title>account-material5</title>
    <desc>Created with Sketch.</desc>
    <g id="Responsive" stroke="none" stroke-width="1" fill="none" fill-rule="evenodd">
        <g id="Desktop-HD-5-Copy-2" transform="translate(-1157.000000, -1299.000000)" fill-rule="nonzero">
            <g id="account-material5" transform="translate(1157.000000, 1299.000000)">
                <g id="Account" transform="translate(2.424242, 0.000000)">
                    <circle id="Oval" fill="#734499" cx="30.2848485" cy="29.9030303" r="29.9030303"></circle>
                    <circle id="Oval" fill="#FFFFFF" cx="30.2848485" cy="23.3272727" r="7.4969697"></circle>
                    <path d="M30.3030303,59.8 C46.8181818,59.8 60.2060606,46.7212121 60.2060606,30.5818182 C60.2060606,30.2242424 60.2060606,29.8727273 60.2060606,29.5151515 L60.2060606,29.0606061 L60.2060606,29.0606061 C59.1454545,28.7030303 51.969697,27.8484848 50.8666667,27.6666667 C49.233392,27.6757891 47.6306469,27.2241637 46.2424242,26.3636364 L46.9575758,26.5090909 C46.886845,26.3301102 46.7671199,26.1746777 46.6121212,26.0606061 C45.8965591,25.504477 45.152085,24.9865819 44.3818182,24.5090909 C44.1420023,24.1548731 43.9273339,23.7842662 43.7393939,23.4 L44.1939394,23.6484848 C43.9674486,23.2430317 43.7036829,22.859557 43.4060606,22.5030303 C42.8363636,21.8060606 40.1333333,19.5575758 40.1333333,19.5575758 L40.3878788,19.5575758 C40.3224281,19.4686309 40.2494305,19.3854947 40.169697,19.3090909 C39.8890228,19.0970047 39.5886583,18.9123212 39.2727273,18.7575758 C38.9272727,18.5818182 37.2787879,17.4727273 37.2787879,17.4727273 L37.7333333,17.4727273 L37.0909091,16.8666667 C36.2635365,16.1935571 35.3122798,15.6891028 34.2909091,15.3818182 C31.4814589,14.8778488 28.601625,14.9148752 25.8060606,15.4909091 C24.7905065,15.8213141 23.8509925,16.3508209 23.0424242,17.0484848 L22.4,17.6545455 L22.8545455,17.6545455 C22.8545455,17.6545455 21.1878788,18.7636364 20.8606061,18.9393939 C20.5446751,19.0941393 20.2443105,19.2788229 19.9636364,19.4909091 C19.8839245,19.5673337 19.8109286,19.6504679 19.7454545,19.7393939 L20,19.7393939 C18.8359593,20.6010634 17.7248579,21.532041 16.6727273,22.5272727 C16.3538235,22.8694341 16.0677216,23.2407579 15.8181818,23.6363636 L16.2727273,23.3878788 C16.0847874,23.772145 15.8701189,24.1427519 15.630303,24.4969697 C15.4484848,24.7090909 14.369697,25.1939394 13.4,26.0545455 C13.2450013,26.1686171 13.1252762,26.3240496 13.0545455,26.5030303 L13.8242424,26.3393939 C12.4360197,27.1999212 10.8332747,27.6515466 9.2,27.6424242 C8.27272727,27.7151515 1.32121212,28.5575758 0.436363636,28.9090909 C0.436363636,28.9090909 0.436363636,28.969697 0.436363636,29 L0.436363636,29.2363636 C0.436363636,29.6787879 0.4,30.1272727 0.4,30.5757576 C0.381818182,46.7212121 13.769697,59.8 30.3030303,59.8 Z M31.9878788,22.3272727 C32.211617,21.628891 32.9495492,21.2344326 33.6545455,21.4363636 C34.4787879,21.5636364 35.0606061,22.1515152 34.9515152,22.7757576 C34.8424242,23.4 34.1818182,23.3818182 33.3575758,23.2606061 C32.5333333,23.1393939 31.8727273,22.9393939 31.9636364,22.3272727 L31.9878788,22.3272727 Z M27.2121212,21.4363636 C27.9113322,21.2457066 28.6370048,21.63789 28.8606061,22.3272727 C28.9515152,22.9333333 28.3090909,23.1333333 27.4909091,23.2545455 C26.6727273,23.3757576 25.9939394,23.3818182 25.8969697,22.769697 C25.8,22.1575758 26.3878788,21.5575758 27.2121212,21.4363636 Z" id="Shape" fill="#9A80B8"></path>
                    <g id="Account-2" transform="translate(3.030303, 5.454545)" fill="#5A2D83">
                        <polygon id="Shape" points="17.4666667 5.40606061 9.39393939 5.40606061 9.6969697 0.242424242 5.45454545 3.54545455 4.82424242 6.61818182 2.81818182 6.61818182 0.442424242 11.1939394 4.82424242 11.1939394 4.82424242 18.0545455 10.6060606 18.0545455 10.6060606 11.1939394 17.4666667 11.1939394"></polygon>
                    </g>
                </g>
                <polygon id="Rectangle-path" fill="#B49FCA" points="6.55151515 1.37575758 12.6121212 1.37575758 12.6121212 20.769697 6.55151515 20.769697"></polygon>
                <rect id="Rectangle-path" fill="#B49FCA" x="0" y="8.04242424" width="19.3939394" height="6.06060606"></rect>
            </g>
        </g>
    </g>
</svg>