<?xml version="1.0" encoding="UTF-8"?>
<svg width="60px" height="60px" viewBox="0 0 60 60" version="1.1" xmlns="http://www.w3.org/2000/svg" xmlns:xlink="http://www.w3.org/1999/xlink">
    <!-- Generator: Sketch 53.2 (72643) - https://sketchapp.com -->
    <title>advice-material2</title>
    <desc>Created with Sketch.</desc>
    <g id="Responsive" stroke="none" stroke-width="1" fill="none" fill-rule="evenodd">
        <g id="Desktop-HD-5-Copy-2" transform="translate(-448.000000, -1299.000000)" fill-rule="nonzero">
            <g id="advice-material2" transform="translate(448.000000, 1299.000000)">
                <path d="M56.6265306,11.9204082 L47.944898,11.9204082 L47.944898,33.0612245 C47.944898,33.8520026 47.6307626,34.6103926 47.071598,35.1695572 C46.5124334,35.7287217 45.7540435,36.0428571 44.9632653,36.0428571 L15.1591837,36.0428571 L11.9204082,39.2816327 L11.9204082,44.6938776 C11.9204082,46.3405878 13.2553306,47.6755102 14.9020408,47.6755102 L47.6816327,47.6755102 L59.6081884,59.6081633 L59.6081633,14.9142857 C59.6114195,14.1213881 59.2987223,13.3598487 58.7392043,12.7980329 C58.1796864,12.2362172 57.4194349,11.9204015 56.6265306,11.9204082 Z" id="Shape" fill="#21B9F2"></path>
                <path d="M46.4265306,37.744898 C47.2627992,37.7336085 48.0603226,37.3905352 48.6436155,36.7911673 C49.2269084,36.1917994 49.5481787,35.3852461 49.5367347,34.5489796 L49.5370303,11.8959184 L44.6938776,11.8959184 L44.6142857,30.5571429 C44.6142857,30.9979592 44.6142857,30.5571429 44.455102,30.9367347 C44.2297497,31.4682241 43.8555419,31.9232268 43.377551,32.2469388 C43.0469388,32.4734694 43.2244898,32.455102 42.8204082,32.5408163 C42.4555273,32.6338479 42.0855043,32.7053993 41.7122449,32.755102 L11.9204082,32.755102 L11.9204082,41.2163265 L15.3061224,37.744898 L46.4265306,37.744898 Z" id="Shape" fill="#009ED8"></path>
                <path d="M41.7244898,6.7974394e-16 L2.98163265,6.7974394e-16 C1.33492241,5.78916526e-16 2.01663843e-16,1.33492241 0,2.98163265 L0,44.6938776 L11.9204082,32.7857143 L41.7244898,32.7857143 C41.9301325,32.7863873 42.1352974,32.7658708 42.3367347,32.7244898 C42.7177197,32.6468436 43.0796996,32.4949785 43.4020408,32.277551 C44.218677,31.7290184 44.7114097,30.8123063 44.7183673,29.8285714 L44.7183673,2.98163265 C44.718374,2.18872836 44.4025583,1.42847684 43.8407426,0.868958923 C43.2789269,0.309441008 42.5173874,-0.00325628048 41.7244898,6.7974394e-16 Z" id="Shape" fill="#9EE1F9"></path>
            </g>
        </g>
    </g>
</svg>