<?xml version="1.0" encoding="UTF-8"?>
<svg width="64px" height="60px" viewBox="0 0 64 60" version="1.1" xmlns="http://www.w3.org/2000/svg" xmlns:xlink="http://www.w3.org/1999/xlink">
    <!-- Generator: Sketch 53.2 (72643) - https://sketchapp.com -->
    <title>upload-material2</title>
    <desc>Created with Sketch.</desc>
    <g id="Responsive" stroke="none" stroke-width="1" fill="none" fill-rule="evenodd">
        <g id="Desktop-HD-5-Copy-2" transform="translate(-800.000000, -1299.000000)">
            <g id="upload-material2" transform="translate(800.000000, 1299.000000)">
                <g id="Upload-2">
                    <polygon id="Shape" points="44.7352941 18.5823529 59.3352941 18.5823529 44.7352941 3.98235294"></polygon>
                    <polygon id="Shape" points="44.7352941 18.5823529 59.3352941 18.5823529 44.7352941 3.98235294"></polygon>
                    <path d="M45.7588235,0 L30.0882353,0 C24.9812257,-3.12714146e-16 20.8411765,4.14004925 20.8411765,9.24705882 L20.8411765,43.8529412 C20.8411765,48.9599507 24.9812257,53.1 30.0882353,53.1 L54.0705882,53.1 C59.1775978,53.1 63.3176471,48.9599507 63.3176471,43.8529412 L63.3176471,17.5588235 C63.311251,16.5117942 62.8878627,15.5104809 62.1411765,14.7764706 L48.5411765,1.17647059 C47.8071662,0.429784351 46.8058529,0.00639605752 45.7588235,0 Z" id="_Compound_Path_" fill="#46C054" fill-rule="nonzero"></path>
                    <polygon id="Shape" fill="#9BDDA2" fill-rule="nonzero" points="48.2647059 15.6411765 62.8647059 15.6411765 48.2647059 1.04117647"></polygon>
                    <polygon id="Shape" points="29.5 30.8823529 19.6470588 40.7352941 25.5294118 40.7352941 25.5294118 48.6176471 33.4117647 48.6176471 33.4117647 40.7705882 39.4117647 40.7705882 29.5294118 30.8823529"></polygon>
                    <rect id="Rectangle-path" fill="#3FAD4C" fill-rule="nonzero" x="13.5764706" y="36.1176471" width="20.3823529" height="18.8235294"></rect>
                    <path d="M38.9235294,40.0470588 C37.7052699,33.8551153 32.7059493,29.1098607 26.4589352,28.2159166 C20.2119211,27.3219724 14.0824043,30.4746967 11.1764706,36.0764706 L11.1764706,36.0764706 C5.06179941,36.747991 0.469290773,41.9732452 0.588235294,48.1235294 C0.7,54.6529412 6.23529412,59.7941176 12.7647059,59.7941176 L37.9058824,59.7941176 C43.4176471,59.7941176 48.1058824,55.4294118 48.1235294,49.9176471 C48.1268575,44.7211775 44.107398,40.4087395 38.9235294,40.0470588 Z M28.3352941,45.9294118 L28.3352941,53.8294118 L20.4117647,53.8294118 L20.4117647,45.9529412 L14.5294118,45.9529412 L24.3411765,36.0411765 L34.2588235,45.9294118 L28.3352941,45.9294118 Z" id="Shape" fill="#88E289" fill-rule="nonzero"></path>
                </g>
                <path d="M52.0352941,47.7 C52.0405188,42.0467427 47.6740666,37.3515223 42.0352941,36.9470588 C41.1219974,32.3594056 38.2654909,28.3926295 34.2040594,26.0719727 C30.142628,23.7513159 25.2748447,23.3045186 20.8588235,24.8470588 L20.8588235,28.8823529 C28.8522188,27.6719618 36.3991807,32.9158481 38.0529412,40.8294118 C43.3690231,41.1580086 47.5175378,45.5561547 47.5352941,50.8823529 C47.5321724,51.6276698 47.4413518,52.3700299 47.2647059,53.0941176 L50.5058824,53.0941176 C51.499883,51.4699947 52.0289132,49.604146 52.0352941,47.7 L52.0352941,47.7 Z" id="Shape" fill="#3FAD4C" fill-rule="nonzero"></path>
            </g>
        </g>
    </g>
</svg>